<svg id="visual" viewBox="0 0 900 600" width="900" height="600" xmlns="http://www.w3.org/2000/svg" xmlns:xlink="http://www.w3.org/1999/xlink" version="1.1"><rect x="0" y="0" width="900" height="600" fill="#f8f8f8"></rect><g transform="translate(457.05018033676606 288.3192088431074)"><path d="M103 -120.4C131.9 -98.5 152.6 -64.5 158.9 -28.1C165.2 8.3 157.1 47.1 141 87.5C125 127.8 101 169.6 68.1 177.2C35.3 184.8 -6.3 158.2 -35.3 132.3C-64.4 106.5 -80.9 81.4 -107.4 53.4C-133.9 25.3 -170.4 -5.6 -174.7 -39.4C-179 -73.3 -151.2 -110.2 -116.7 -131.1C-82.3 -152.1 -41.1 -157 -2 -154.6C37.1 -152.2 74.1 -142.4 103 -120.4" fill="#878afe"></path></g></svg>